<svg width="36" height="36" xmlns="http://www.w3.org/2000/svg">
    <g>
        <rect x="-1" y="-1" width="38" height="38" fill="#515151"/>
        <g transform="matrix(0.26458333,0,0,0.26458333,-29.812872,225.03758) ">
            <path d="m152.438741,-754.514963l7.168,0l0,-50.00534l18.43201,0l0,-5.97333l-44.03201,0l0,5.97333l18.432,0l0,50.00534z" fill="#fff"/>
            <path d="m207.616081,-753.490963c12.288,0 19.79733,-7.08267 19.79733,-15.95734c0,-8.27733 -5.46133,-12.11733 -12.37333,-14.93333l-7.85067,-3.41333c-4.77866,-1.96267 -9.984,-3.92534 -9.984,-9.30134c0,-5.03466 4.352,-8.192 10.83734,-8.192c5.80266,0 10.06933,2.048 13.73866,5.29067l3.75467,-4.608c-4.096,-4.096 -10.24,-6.912 -17.23733,-6.912c-10.66667,0 -18.34667,6.31467 -18.34667,14.848c0,8.192 6.48533,12.20267 12.11733,14.42133l8.02134,3.49867c5.71733,2.47467 10.06933,4.18133 10.06933,10.15467c0,5.20533 -4.52267,8.87466 -12.20267,8.87466c-6.4,0 -12.20266,-2.816 -16.384,-6.99733l-4.26666,4.94933c5.03466,5.03467 12.11733,8.27734 20.30933,8.27734z" fill="#fff"/>
        </g>
    </g>
</svg>